<svg width="27" height="21" viewBox="0 0 27 21" fill="none" xmlns="http://www.w3.org/2000/svg">
<path d="M3.53683 8.06132L7.02927 17.1237C8.12777 19.5313 10.9705 20.5922 13.378 19.4937C15.7855 18.3952 16.8464 15.5525 15.748 13.1449L12.2555 4.08253C11.157 1.675 8.31431 0.614094 5.90677 1.71259C3.49924 2.81108 2.43833 5.65378 3.53683 8.06132Z" fill="#009B3E"/>
<g style="mix-blend-mode:multiply">
<path fill-rule="evenodd" clip-rule="evenodd" d="M16.8865 19.8121C22.0015 19.8121 26.148 15.6655 26.148 10.5506C26.148 8.90552 25.7191 7.36066 24.967 6.02168L9.7283 16.4277C11.4269 18.4941 14.0028 19.8121 16.8865 19.8121ZM9.08665 15.5464C8.16152 14.1051 7.625 12.3905 7.625 10.5506C7.625 5.43558 11.7715 1.28906 16.8865 1.28906C19.9659 1.28906 22.6944 2.79199 24.3782 5.10436L9.08665 15.5464Z" fill="#ED008C"/>
</g>
</svg>
