<svg width="252" height="57" viewBox="0 0 252 57" fill="none" xmlns="http://www.w3.org/2000/svg">
<path d="M2.656 35V11.16H5.792V21.784H17.728V11.16H20.896V35H17.728V24.664H5.792V35H2.656ZM26.1873 35V11.16H41.7073V14.04H29.3233V21.592H41.0673V24.472H29.3233V32.12H41.7073V35H26.1873ZM43.2895 35L51.8335 11.16H55.5455L64.0895 35H60.7295L58.7775 29.4H48.6015L46.6495 35H43.2895ZM49.5935 26.52H57.7855L53.2415 13.432H54.1375L49.5935 26.52ZM67.0935 35V11.16H70.2295V32.12H80.6935V35H67.0935ZM86.4723 35V14.04H80.0083V11.16H96.0083V14.04H89.6403V35H86.4723ZM99.031 35V11.16H102.167V21.784H114.103V11.16H117.271V35H114.103V24.664H102.167V35H99.031ZM130.69 35.384C129.197 35.384 127.789 35.1173 126.466 34.584C125.165 34.0293 124.034 33.2507 123.074 32.248C122.136 31.2453 121.432 30.0613 120.962 28.696L125.026 26.872C125.624 28.1733 126.445 29.1973 127.49 29.944C128.557 30.6907 129.73 31.064 131.01 31.064C131.693 31.064 132.28 30.9573 132.77 30.744C133.261 30.5307 133.645 30.2427 133.922 29.88C134.2 29.496 134.338 29.048 134.338 28.536C134.338 27.9813 134.168 27.512 133.826 27.128C133.485 26.7227 132.952 26.4027 132.226 26.168L127.554 24.632C125.656 24.0133 124.226 23.1387 123.266 22.008C122.306 20.856 121.826 19.48 121.826 17.88C121.826 16.472 122.168 15.2347 122.85 14.168C123.554 13.1013 124.525 12.2693 125.762 11.672C127.021 11.0747 128.461 10.776 130.082 10.776C131.512 10.776 132.834 11.0213 134.05 11.512C135.266 12.0027 136.312 12.696 137.186 13.592C138.082 14.488 138.754 15.5653 139.202 16.824L135.17 18.648C134.722 17.5387 134.05 16.6747 133.154 16.056C132.258 15.416 131.234 15.096 130.082 15.096C129.421 15.096 128.834 15.2027 128.322 15.416C127.81 15.6293 127.416 15.9387 127.138 16.344C126.861 16.728 126.722 17.176 126.722 17.688C126.722 18.2427 126.904 18.7333 127.266 19.16C127.629 19.5653 128.173 19.8853 128.898 20.12L133.474 21.592C135.394 22.2107 136.824 23.0747 137.762 24.184C138.722 25.2933 139.202 26.648 139.202 28.248C139.202 29.6347 138.84 30.872 138.114 31.96C137.389 33.0267 136.386 33.8693 135.106 34.488C133.848 35.0853 132.376 35.384 130.69 35.384ZM147.025 35V15.48H140.977V11.16H157.937V15.48H151.985V35H147.025ZM160.393 35V11.16H169.513C171.156 11.16 172.607 11.448 173.865 12.024C175.145 12.6 176.148 13.4533 176.873 14.584C177.599 15.7147 177.961 17.112 177.961 18.776C177.961 20.3973 177.588 21.784 176.841 22.936C176.095 24.0667 175.092 24.92 173.833 25.496L179.273 35H173.705L167.817 24.472L171.017 26.36H165.353V35H160.393ZM165.353 22.04H169.545C170.249 22.04 170.857 21.9013 171.369 21.624C171.881 21.3467 172.276 20.9627 172.553 20.472C172.852 19.9813 173.001 19.416 173.001 18.776C173.001 18.1147 172.852 17.5387 172.553 17.048C172.276 16.5573 171.881 16.1733 171.369 15.896C170.857 15.6187 170.249 15.48 169.545 15.48H165.353V22.04ZM181.737 35V11.16H186.697V35H181.737ZM190.924 35V11.16H194.733L207.533 28.024L205.485 28.504V11.16H210.445V35H206.605L194.029 18.008L195.885 17.528V35H190.924ZM226.131 35.384C224.424 35.384 222.835 35.0747 221.363 34.456C219.891 33.8373 218.6 32.9733 217.491 31.864C216.381 30.7547 215.517 29.4533 214.899 27.96C214.28 26.4667 213.971 24.8347 213.971 23.064C213.971 21.2933 214.269 19.6613 214.867 18.168C215.464 16.6533 216.307 15.352 217.395 14.264C218.483 13.1547 219.752 12.3013 221.203 11.704C222.675 11.0853 224.275 10.776 226.003 10.776C227.731 10.776 229.277 11.064 230.642 11.64C232.029 12.216 233.203 12.984 234.163 13.944C235.123 14.904 235.805 15.9707 236.211 17.144L231.827 19.256C231.421 18.104 230.707 17.1547 229.683 16.408C228.68 15.64 227.453 15.256 226.003 15.256C224.595 15.256 223.357 15.5867 222.291 16.248C221.224 16.9093 220.392 17.8267 219.795 19C219.219 20.152 218.931 21.5067 218.931 23.064C218.931 24.6213 219.24 25.9867 219.859 27.16C220.477 28.3333 221.32 29.2507 222.387 29.912C223.475 30.5733 224.723 30.904 226.131 30.904C227.219 30.904 228.232 30.7013 229.171 30.296C230.131 29.8693 230.899 29.2613 231.475 28.472C232.072 27.6827 232.371 26.7333 232.371 25.624V23.64L234.643 25.56H226.003V21.4H237.331V23.928C237.331 25.8693 237.011 27.5653 236.371 29.016C235.731 30.4453 234.867 31.64 233.779 32.6C232.712 33.5387 231.507 34.2427 230.163 34.712C228.84 35.16 227.496 35.384 226.131 35.384Z" fill="#000083"/>
<path d="M184.386 53V43.352H185.736V44.936L185.556 44.702C185.784 44.246 186.126 43.886 186.582 43.622C187.05 43.358 187.614 43.226 188.274 43.226H188.886V44.576H188.04C187.344 44.576 186.786 44.792 186.366 45.224C185.946 45.656 185.736 46.268 185.736 47.06V53H184.386ZM194.86 53.216C193.96 53.216 193.144 53 192.412 52.568C191.692 52.124 191.122 51.518 190.702 50.75C190.282 49.982 190.072 49.112 190.072 48.14C190.072 47.168 190.276 46.31 190.684 45.566C191.092 44.81 191.644 44.216 192.34 43.784C193.048 43.352 193.84 43.136 194.716 43.136C195.412 43.136 196.03 43.268 196.57 43.532C197.122 43.784 197.59 44.132 197.974 44.576C198.358 45.008 198.652 45.5 198.856 46.052C199.06 46.592 199.162 47.15 199.162 47.726C199.162 47.846 199.156 47.984 199.144 48.14C199.132 48.284 199.114 48.434 199.09 48.59H190.936V47.33H198.316L197.668 47.87C197.776 47.21 197.698 46.622 197.434 46.106C197.182 45.578 196.816 45.164 196.336 44.864C195.856 44.552 195.316 44.396 194.716 44.396C194.116 44.396 193.558 44.552 193.042 44.864C192.538 45.176 192.142 45.614 191.854 46.178C191.566 46.73 191.452 47.39 191.512 48.158C191.452 48.926 191.572 49.598 191.872 50.174C192.184 50.738 192.604 51.176 193.132 51.488C193.672 51.8 194.248 51.956 194.86 51.956C195.568 51.956 196.162 51.788 196.642 51.452C197.122 51.116 197.512 50.696 197.812 50.192L198.964 50.804C198.772 51.236 198.478 51.638 198.082 52.01C197.686 52.37 197.212 52.664 196.66 52.892C196.12 53.108 195.52 53.216 194.86 53.216ZM201.542 56.6V43.352H202.892V45.512L202.676 45.134C203.06 44.522 203.57 44.036 204.206 43.676C204.854 43.316 205.592 43.136 206.42 43.136C207.332 43.136 208.142 43.358 208.85 43.802C209.57 44.234 210.134 44.828 210.542 45.584C210.962 46.34 211.172 47.204 211.172 48.176C211.172 49.136 210.962 50 210.542 50.768C210.134 51.524 209.57 52.124 208.85 52.568C208.142 53 207.332 53.216 206.42 53.216C205.592 53.216 204.842 53.03 204.17 52.658C203.51 52.274 203.012 51.734 202.676 51.038L202.892 50.84V56.6H201.542ZM206.348 51.866C206.996 51.866 207.572 51.704 208.076 51.38C208.592 51.056 208.994 50.618 209.282 50.066C209.582 49.502 209.732 48.872 209.732 48.176C209.732 47.468 209.582 46.838 209.282 46.286C208.994 45.734 208.592 45.296 208.076 44.972C207.572 44.648 206.996 44.486 206.348 44.486C205.7 44.486 205.112 44.648 204.584 44.972C204.068 45.296 203.654 45.74 203.342 46.304C203.042 46.856 202.892 47.48 202.892 48.176C202.892 48.872 203.042 49.502 203.342 50.066C203.654 50.618 204.068 51.056 204.584 51.38C205.112 51.704 205.7 51.866 206.348 51.866ZM218.066 53.216C217.154 53.216 216.326 53 215.582 52.568C214.838 52.124 214.244 51.524 213.8 50.768C213.368 50 213.152 49.13 213.152 48.158C213.152 47.198 213.368 46.34 213.8 45.584C214.232 44.828 214.814 44.234 215.546 43.802C216.29 43.358 217.13 43.136 218.066 43.136C219.002 43.136 219.836 43.352 220.568 43.784C221.312 44.216 221.894 44.81 222.314 45.566C222.746 46.322 222.962 47.186 222.962 48.158C222.962 49.142 222.74 50.018 222.296 50.786C221.852 51.542 221.258 52.136 220.514 52.568C219.782 53 218.966 53.216 218.066 53.216ZM218.066 51.866C218.714 51.866 219.296 51.704 219.812 51.38C220.34 51.056 220.754 50.612 221.054 50.048C221.366 49.484 221.522 48.854 221.522 48.158C221.522 47.462 221.366 46.838 221.054 46.286C220.754 45.734 220.34 45.296 219.812 44.972C219.296 44.648 218.714 44.486 218.066 44.486C217.418 44.486 216.83 44.648 216.302 44.972C215.786 45.296 215.372 45.734 215.06 46.286C214.748 46.838 214.592 47.462 214.592 48.158C214.592 48.854 214.748 49.484 215.06 50.048C215.372 50.612 215.786 51.056 216.302 51.38C216.83 51.704 217.418 51.866 218.066 51.866ZM225.343 53V43.352H226.693V44.936L226.513 44.702C226.741 44.246 227.083 43.886 227.539 43.622C228.007 43.358 228.571 43.226 229.231 43.226H229.843V44.576H228.997C228.301 44.576 227.743 44.792 227.323 45.224C226.903 45.656 226.693 46.268 226.693 47.06V53H225.343ZM235.115 53.108C234.251 53.108 233.585 52.856 233.117 52.352C232.649 51.848 232.415 51.128 232.415 50.192V44.702H230.633V43.352H231.083C231.491 43.352 231.815 43.22 232.055 42.956C232.295 42.68 232.415 42.338 232.415 41.93V41.12H233.765V43.352H235.889V44.702H233.765V50.192C233.765 50.516 233.813 50.804 233.909 51.056C234.005 51.296 234.167 51.488 234.395 51.632C234.635 51.776 234.953 51.848 235.349 51.848C235.445 51.848 235.559 51.842 235.691 51.83C235.823 51.818 235.937 51.806 236.033 51.794V53C235.889 53.036 235.727 53.06 235.547 53.072C235.367 53.096 235.223 53.108 235.115 53.108Z" fill="#000083"/>
<path d="M240.17 11V4.3H238.11V3.55H243.01V4.3H240.97V11H240.17ZM243.997 11V3.55H244.697L247.497 7.61H247.107L249.897 3.55H250.597V11H249.797V4.63L250.057 4.73L247.317 8.7H247.277L244.547 4.73L244.797 4.63V11H243.997Z" fill="#000083"/>
</svg>
