<svg width="25" height="20" viewBox="0 0 25 20" fill="none" xmlns="http://www.w3.org/2000/svg">
<g style="mix-blend-mode:multiply">
<path d="M23.75 8.24866L16.0098 18.2242C14.4831 20.1631 11.6462 20.5189 9.67472 19.0184C7.70194 17.518 7.33998 14.7297 8.86664 12.7921L16.6068 2.81652C18.1335 0.877591 20.9705 0.521837 22.9419 2.02231C24.9147 3.52277 25.2766 6.31105 23.75 8.24866Z" fill="#EED32A"/>
</g>
<g style="mix-blend-mode:multiply">
<path d="M1.2573 8.99623L7.81823 18.0016C9.75036 20.3433 13.2155 20.6748 15.5572 18.7427C17.8989 16.8106 18.2304 13.3455 16.2983 11.0038L9.73736 1.99843C7.80522 -0.343273 4.34013 -0.674829 1.99843 1.2573C-0.343273 3.18943 -0.674829 6.65453 1.2573 8.99623Z" fill="#ED008C" fill-opacity="0.9"/>
</g>
<g style="mix-blend-mode:multiply">
<path d="M18.2509 7.49363C16.9988 6.24151 17.0001 4.20926 18.2522 2.95585C19.5044 1.70373 21.5366 1.70113 22.79 2.95455C24.0421 4.20666 24.0408 6.23891 22.7887 7.49233C21.5366 8.74444 19.5044 8.74704 18.2509 7.49363Z" fill="#DF188E"/>
</g>
</svg>
