<svg width="16" height="20" viewBox="0 0 16 20" fill="none" xmlns="http://www.w3.org/2000/svg">
<g style="mix-blend-mode:multiply">
<path d="M7.07706 1.58202L0.259765 16.0869C-0.383258 17.4603 0.208573 19.096 1.58202 19.7402C2.95547 20.3833 4.59112 19.7914 5.23539 18.418L12.0514 3.91313C12.6945 2.53969 12.1026 0.904036 10.7292 0.259765C9.35573 -0.383258 7.72008 0.208573 7.07581 1.58202H7.07706Z" fill="#00ADEF" fill-opacity="0.9"/>
</g>
<g style="mix-blend-mode:multiply">
<path d="M1.51725 6.20446L7.19333 17.6253C8.25338 19.7417 10.828 20.5969 12.9431 19.5369C15.0594 18.4768 15.9147 15.9022 14.8547 13.7871L9.17983 2.36755C8.11978 0.251194 5.54519 -0.605337 3.42883 0.454714C1.31373 1.51477 0.457194 4.08935 1.51725 6.20446Z" fill="#00ADEF" fill-opacity="0.9"/>
</g>
</svg>
