<svg width="23" height="23" viewBox="0 0 23 23" fill="none" xmlns="http://www.w3.org/2000/svg">
<g style="mix-blend-mode:multiply">
<path d="M9.24316 3.50223C6.25461 4.42272 3.87624 7.03078 3.34068 10.4038C2.59834 15.0791 5.6776 19.4537 10.2184 20.1747C12.1931 20.4882 14.1191 20.0591 15.7263 19.0895" stroke="#18AAE1" stroke-width="5" stroke-linecap="round"/>
</g>
<g style="mix-blend-mode:multiply">
<path d="M20.8046 9.95059C19.9669 5.14844 15.3597 1.94077 10.5141 2.78605C8.0479 3.21626 5.99527 4.61341 4.68451 6.51492" stroke="#DF188E" stroke-width="3.5" stroke-linecap="round"/>
</g>
<g style="mix-blend-mode:multiply">
<path d="M4.56846 9.19704C5.1106 7.41023 6.31114 5.8136 8.06245 4.80248C11.7023 2.70103 16.3428 3.92444 18.4274 7.53504C20.512 11.1456 19.2512 15.7762 15.6114 17.8776C14.0181 18.7975 12.2331 19.0803 10.5547 18.8047" stroke="#EED32A" stroke-width="5" stroke-linecap="round"/>
</g>
</svg>
